<svg width="21" height="22" viewBox="0 0 21 22" fill="none" xmlns="http://www.w3.org/2000/svg">
<g id="gridicons:add-outline">
<path id="Vector" d="M10.5 4C14.3596 4 17.5 7.14038 17.5 11C17.5 14.8596 14.3596 18 10.5 18C6.64038 18 3.5 14.8596 3.5 11C3.5 7.14038 6.64038 4 10.5 4ZM10.5 2.25C5.66738 2.25 1.75 6.16738 1.75 11C1.75 15.8326 5.66738 19.75 10.5 19.75C15.3326 19.75 19.25 15.8326 19.25 11C19.25 6.16738 15.3326 2.25 10.5 2.25ZM14.875 10.125H11.375V6.625H9.625V10.125H6.125V11.875H9.625V15.375H11.375V11.875H14.875V10.125Z" fill="black" fill-opacity="0.25"/>
</g>
</svg>
