<svg width="51" height="50" viewBox="0 0 51 50" fill="none" xmlns="http://www.w3.org/2000/svg">
<g clip-path="url(#clip0_29_319)">
<path d="M25.6506 17C24.26 17.0018 22.9269 17.555 21.9435 18.5383C20.9602 19.5216 20.407 20.8547 20.4053 22.2453H23.0719C23.0719 20.8227 24.2293 19.6667 25.6506 19.6667C27.0719 19.6667 28.2293 20.8227 28.2293 22.2453C28.2293 23.0427 27.5879 23.6213 26.6079 24.4133C26.2878 24.6641 25.9803 24.9307 25.6866 25.212C24.3559 26.5413 24.3173 27.9533 24.3173 28.1107V29H26.9839L26.9826 28.156C26.9839 28.1347 27.0266 27.6413 27.5706 27.0987C27.7706 26.8987 28.0226 26.6987 28.2839 26.488C29.3226 25.6467 30.8946 24.376 30.8946 22.2453C30.8935 20.8547 30.3408 19.5214 29.3576 18.538C28.3744 17.5545 27.0412 17.0014 25.6506 17ZM24.3173 30.3333H26.9839V33H24.3173V30.3333Z" fill="#C256FA"/>
<path d="M25.6507 11.6665C18.2987 11.6665 12.3174 17.6478 12.3174 24.9998C12.3174 32.3518 18.2987 38.3332 25.6507 38.3332C33.0027 38.3332 38.9841 32.3518 38.9841 24.9998C38.9841 17.6478 33.0027 11.6665 25.6507 11.6665ZM25.6507 35.6665C19.7694 35.6665 14.984 30.8812 14.984 24.9998C14.984 19.1185 19.7694 14.3332 25.6507 14.3332C31.532 14.3332 36.3174 19.1185 36.3174 24.9998C36.3174 30.8812 31.532 35.6665 25.6507 35.6665Z" fill="#C256FA"/>
<rect opacity="0.12" x="0.650391" width="50" height="50" rx="25" fill="#C256FA"/>
</g>
<defs>
<clipPath id="clip0_29_319">
<rect x="0.650391" width="50" height="50" rx="25" fill="white"/>
</clipPath>
</defs>
</svg>
