<svg width="194" height="35" viewBox="0 0 194 35" fill="none" xmlns="http://www.w3.org/2000/svg">
<path d="M58.002 32.3071V25.2425H59.7695C60.8617 25.2425 61.6915 25.5476 62.2592 26.1579C62.8268 26.761 63.1106 27.6225 63.1106 28.7425C63.1106 29.8697 62.8268 30.7456 62.2592 31.3702C61.6987 31.9948 60.8832 32.3071 59.8126 32.3071H58.002ZM58.8965 31.5748H59.7048C60.5311 31.5748 61.1491 31.3271 61.5586 30.8317C61.9754 30.3292 62.1837 29.6328 62.1837 28.7425C62.1837 27.8523 61.9754 27.1702 61.5586 26.6964C61.1491 26.2153 60.5311 25.9748 59.7048 25.9748H58.8965V31.5748ZM64.4174 32.3071V25.2425H65.312V32.3071H64.4174ZM69.8135 32.4364C69.1956 32.4364 68.6459 32.2928 68.1645 32.0056C67.6831 31.7112 67.3059 31.2912 67.0328 30.7456C66.7598 30.1999 66.6233 29.543 66.6233 28.7748C66.6233 28.0138 66.7634 27.3605 67.0436 26.8148C67.3238 26.2692 67.7082 25.8492 68.1968 25.5548C68.6854 25.2605 69.2423 25.1133 69.8674 25.1133C70.356 25.1133 70.7655 25.2066 71.096 25.3933C71.4338 25.5728 71.7032 25.7702 71.9044 25.9856L71.4086 26.5671C71.229 26.3805 71.0206 26.2225 70.7835 26.0933C70.5464 25.9641 70.2482 25.8994 69.8889 25.8994C69.4147 25.8994 69.0016 26.0179 68.6495 26.2548C68.2974 26.4846 68.0244 26.8112 67.8304 27.2348C67.6436 27.6584 67.5502 28.1646 67.5502 28.7533C67.5502 29.6435 67.7514 30.3507 68.1537 30.8748C68.5633 31.3917 69.1453 31.6502 69.8997 31.6502C70.1512 31.6502 70.3919 31.6143 70.6218 31.5425C70.8518 31.4635 71.035 31.3594 71.1715 31.2302V29.3887H69.6734V28.6456H71.9906V31.6179C71.7679 31.8548 71.4661 32.0523 71.0853 32.2102C70.7116 32.361 70.2877 32.4364 69.8135 32.4364ZM73.4694 32.3071V25.2425H74.364V32.3071H73.4694ZM77.551 32.3071V25.9964H75.417V25.2425H80.5904V25.9964H78.4564V32.3071H77.551ZM82.4343 28.3548L82.1002 29.4317H84.2234L83.8893 28.3548C83.7599 27.9599 83.6378 27.5687 83.5228 27.181C83.4079 26.7861 83.2929 26.3841 83.1779 25.9748H83.1348C83.0271 26.3841 82.9157 26.7861 82.8007 27.181C82.6858 27.5687 82.5636 27.9599 82.4343 28.3548ZM80.2787 32.3071L82.6714 25.2425H83.6845L86.0772 32.3071H85.1179L84.4497 30.1533H81.8738L81.1948 32.3071H80.2787ZM86.863 32.3071V25.2425H87.7576V31.5425H90.8508V32.3071H86.863ZM96.4395 32.4364C95.8504 32.4364 95.3258 32.2856 94.866 31.9841C94.4133 31.6825 94.0577 31.2553 93.799 30.7025C93.5475 30.1497 93.4218 29.4964 93.4218 28.7425C93.4218 27.9887 93.5475 27.3425 93.799 26.8041C94.0577 26.2584 94.4133 25.842 94.866 25.5548C95.3258 25.2605 95.8504 25.1133 96.4395 25.1133C97.0359 25.1133 97.5604 25.2605 98.0131 25.5548C98.4658 25.842 98.8214 26.2584 99.0801 26.8041C99.3388 27.3425 99.4681 27.9887 99.4681 28.7425C99.4681 29.4964 99.3388 30.1497 99.0801 30.7025C98.8214 31.2553 98.4658 31.6825 98.0131 31.9841C97.5604 32.2856 97.0359 32.4364 96.4395 32.4364ZM96.4395 31.6502C96.8635 31.6502 97.2299 31.5317 97.5389 31.2948C97.855 31.0507 98.0993 30.7133 98.2718 30.2825C98.4442 29.8446 98.5304 29.3312 98.5304 28.7425C98.5304 27.8666 98.34 27.1738 97.9592 26.6641C97.5784 26.1543 97.0718 25.8994 96.4395 25.8994C95.8073 25.8994 95.3007 26.1543 94.9199 26.6641C94.5391 27.1738 94.3487 27.8666 94.3487 28.7425C94.3487 29.3312 94.4349 29.8446 94.6073 30.2825C94.7798 30.7133 95.0241 31.0507 95.3402 31.2948C95.6564 31.5317 96.0228 31.6502 96.4395 31.6502ZM100.773 32.3071V25.2425H101.7L104.254 29.6794L105.02 31.144H105.063C105.041 30.7851 105.016 30.4153 104.987 30.0348C104.966 29.6471 104.955 29.2666 104.955 28.8933V25.2425H105.806V32.3071H104.879L102.314 27.8594L101.549 26.4056H101.506C101.535 26.7574 101.56 27.1199 101.581 27.4933C101.61 27.8666 101.625 28.2399 101.625 28.6133V32.3071H100.773ZM107.536 32.3071V25.2425H111.61V25.9964H108.43V28.2148H111.114V28.9794H108.43V31.5425H111.717V32.3071H107.536ZM116.907 32.4364C116.411 32.4364 115.951 32.343 115.527 32.1564C115.104 31.9625 114.737 31.7076 114.428 31.3917L114.967 30.7671C115.218 31.0328 115.513 31.2482 115.851 31.4133C116.196 31.5712 116.551 31.6502 116.918 31.6502C117.385 31.6502 117.748 31.5461 118.006 31.3379C118.265 31.1225 118.394 30.8425 118.394 30.4979C118.394 30.2538 118.34 30.0599 118.233 29.9164C118.132 29.7728 117.992 29.6507 117.812 29.5502C117.64 29.4497 117.442 29.3492 117.22 29.2487L116.206 28.8071C115.984 28.7138 115.761 28.5917 115.538 28.441C115.323 28.2902 115.139 28.0964 114.989 27.8594C114.845 27.6225 114.773 27.3317 114.773 26.9871C114.773 26.6282 114.866 26.3087 115.053 26.0287C115.247 25.7415 115.513 25.5189 115.851 25.361C116.188 25.1958 116.569 25.1133 116.993 25.1133C117.417 25.1133 117.809 25.1958 118.168 25.361C118.527 25.5189 118.833 25.7271 119.084 25.9856L118.599 26.5671C118.384 26.3589 118.143 26.1974 117.877 26.0825C117.618 25.9605 117.324 25.8994 116.993 25.8994C116.598 25.8994 116.278 25.9928 116.034 26.1794C115.797 26.3661 115.678 26.6174 115.678 26.9333C115.678 27.1558 115.736 27.3425 115.851 27.4933C115.973 27.6369 116.124 27.7553 116.303 27.8487C116.483 27.942 116.666 28.0282 116.853 28.1071L117.855 28.5379C118.128 28.6528 118.373 28.7928 118.588 28.9579C118.811 29.1158 118.987 29.3133 119.116 29.5502C119.246 29.7799 119.31 30.0707 119.31 30.4225C119.31 30.7958 119.213 31.1369 119.019 31.4456C118.825 31.7471 118.549 31.9876 118.19 32.1671C117.83 32.3466 117.403 32.4364 116.907 32.4364ZM121.743 32.3071V25.9964H119.609V25.2425H124.782V25.9964H122.648V32.3071H121.743ZM125.84 32.3071V25.2425H129.914V25.9964H126.734V28.2148H129.418V28.9794H126.734V31.5425H130.021V32.3071H125.84ZM131.308 32.3071V25.2425H133.323C133.855 25.2425 134.318 25.3071 134.714 25.4364C135.109 25.5656 135.418 25.7846 135.641 26.0933C135.863 26.3948 135.975 26.8041 135.975 27.321C135.975 28.0605 135.734 28.6097 135.253 28.9687C134.771 29.3276 134.142 29.5071 133.366 29.5071H132.202V32.3071H131.308ZM132.202 28.7748H133.259C133.877 28.7748 134.333 28.6599 134.627 28.4302C134.929 28.1933 135.08 27.8235 135.08 27.321C135.08 26.8112 134.922 26.4594 134.606 26.2656C134.297 26.0646 133.833 25.9641 133.216 25.9641H132.202V28.7748Z" fill="black"/>
<path d="M17.1605 19.2949H14.6901V11.2491L10.3435 18.8898C10.2366 19.0845 10.0857 19.2321 9.89089 19.3326C9.70232 19.4331 9.49804 19.4833 9.27804 19.4833C9.06428 19.4833 8.86314 19.4331 8.67457 19.3326C8.49229 19.2321 8.34769 19.0845 8.24086 18.8898L3.87531 11.2491V19.2949H1.42383V6.83054C1.42383 6.54789 1.50555 6.29665 1.66898 6.07682C1.8387 5.857 2.0587 5.70937 2.329 5.63403C2.461 5.60262 2.593 5.5932 2.725 5.60576C2.85701 5.61204 2.98272 5.64031 3.10215 5.69052C3.22787 5.7345 3.34102 5.80046 3.44159 5.88841C3.54216 5.97003 3.62703 6.07054 3.69617 6.18986L9.27804 15.8844L14.8599 6.18986C15.0045 5.95118 15.2024 5.78161 15.4539 5.6811C15.7116 5.58063 15.9788 5.56493 16.2553 5.63403C16.5194 5.70937 16.7362 5.857 16.9059 6.07682C17.0756 6.29665 17.1605 6.54789 17.1605 6.83054V19.2949ZM34.9817 19.2949H32.5113V11.2491L28.1647 18.8898C28.0578 19.0845 27.9069 19.2321 27.7121 19.3326C27.5235 19.4331 27.3192 19.4833 27.0992 19.4833C26.8855 19.4833 26.6843 19.4331 26.4958 19.3326C26.3135 19.2321 26.1689 19.0845 26.062 18.8898L21.6965 11.2491V19.2949H19.245V6.83054C19.245 6.54789 19.3267 6.29665 19.4902 6.07682C19.6599 5.857 19.8799 5.70937 20.1502 5.63403C20.2822 5.60262 20.4142 5.5932 20.5462 5.60576C20.6782 5.61204 20.8039 5.64031 20.9233 5.69052C21.0491 5.7345 21.1622 5.80046 21.2628 5.88841C21.3633 5.97003 21.4482 6.07054 21.5174 6.18986L27.0992 15.8844L32.681 6.18986C32.8256 5.95118 33.0236 5.78161 33.2751 5.6811C33.5328 5.58063 33.8 5.56493 34.0765 5.63403C34.3405 5.70937 34.5574 5.857 34.7271 6.07682C34.8968 6.29665 34.9817 6.54789 34.9817 6.83054V19.2949ZM50.4077 18.0607C50.4077 18.2366 50.3763 18.3999 50.3139 18.5506C50.251 18.7014 50.163 18.8333 50.0498 18.9463C49.943 19.0531 49.8141 19.1379 49.6632 19.2007C49.5123 19.2635 49.3488 19.2949 49.1728 19.2949H40.3285C40.1023 19.2949 39.8571 19.2698 39.5931 19.2195C39.3354 19.1631 39.0777 19.0782 38.82 18.9652C38.5685 18.8521 38.3265 18.7077 38.094 18.5318C37.8614 18.3497 37.654 18.133 37.4716 17.8817C37.2956 17.6242 37.1542 17.329 37.0473 16.9962C36.9405 16.657 36.8871 16.277 36.8871 15.8561V9.22355C36.8871 8.99744 36.9122 8.75563 36.9625 8.49811C37.019 8.2343 37.1039 7.97679 37.217 7.72555C37.3302 7.46803 37.4779 7.22307 37.6602 6.99068C37.8425 6.75829 38.0594 6.55417 38.3108 6.37832C38.5685 6.19614 38.864 6.0517 39.1971 5.9449C39.5303 5.83815 39.9074 5.78475 40.3285 5.78475H50.295V8.2343H40.3285C40.008 8.2343 39.7628 8.31911 39.5931 8.48868C39.4234 8.65825 39.3386 8.90949 39.3386 9.24239V15.8561C39.3386 16.1702 39.4234 16.4152 39.5931 16.591C39.7691 16.7606 40.0143 16.8454 40.3285 16.8454H47.9562V13.774H41.4317V11.3056H49.1728C49.3488 11.3056 49.5123 11.3402 49.6632 11.4093C49.8141 11.4721 49.943 11.56 50.0498 11.6731C50.163 11.7861 50.251 11.9181 50.3139 12.0688C50.3763 12.2132 50.4077 12.3703 50.4077 12.5398V18.0607Z" fill="black"/>
<path d="M92.3617 19.2943H89.9102V5.78412H92.3617V19.2943ZM107.967 18.2485C107.967 18.4244 107.933 18.5877 107.864 18.7384C107.801 18.8892 107.713 19.0211 107.6 19.1342C107.493 19.2409 107.364 19.3257 107.213 19.3885C107.062 19.4513 106.902 19.4827 106.732 19.4827C106.581 19.4827 106.427 19.4544 106.27 19.398C106.119 19.3414 105.984 19.2503 105.864 19.1247L96.9072 9.77874V19.2943H94.4557V6.8299C94.4557 6.57866 94.5248 6.35256 94.6632 6.15153C94.8078 5.94427 94.9901 5.7904 95.2101 5.68989C95.4427 5.5957 95.6817 5.57372 95.9268 5.62397C96.1716 5.6679 96.3822 5.78098 96.5582 5.96311L105.516 15.2997V5.78412H107.967V18.2485ZM121.234 13.7734H113.484V11.305H121.234V13.7734ZM122.328 8.23367H112.503V19.2943H110.052V7.01832C110.052 6.84875 110.083 6.68856 110.146 6.53783C110.209 6.38711 110.294 6.25518 110.401 6.14215C110.514 6.02907 110.646 5.94113 110.797 5.87835C110.947 5.81553 111.111 5.78412 111.287 5.78412H122.328V8.23367ZM137.632 13.8299C137.632 14.6527 137.49 15.4096 137.208 16.1005C136.925 16.7914 136.532 17.3881 136.029 17.8905C135.526 18.393 134.929 18.7855 134.237 19.0682C133.552 19.3446 132.804 19.4827 131.993 19.4827H128.674C127.864 19.4827 127.112 19.3446 126.421 19.0682C125.73 18.7855 125.132 18.393 124.629 17.8905C124.126 17.3881 123.73 16.7914 123.442 16.1005C123.159 15.4096 123.017 14.6527 123.017 13.8299V11.2485C123.017 10.432 123.159 9.67827 123.442 8.98738C123.73 8.29021 124.126 7.6935 124.629 7.19731C125.132 6.69484 125.73 6.3023 126.421 6.01965C127.112 5.737 127.864 5.5957 128.674 5.5957H131.993C132.804 5.5957 133.552 5.737 134.237 6.01965C134.929 6.3023 135.526 6.69484 136.029 7.19731C136.532 7.6935 136.925 8.29021 137.208 8.98738C137.49 9.67827 137.632 10.432 137.632 11.2485V13.8299ZM135.18 11.2485C135.18 10.7648 135.102 10.3283 134.945 9.93893C134.794 9.54321 134.577 9.20721 134.294 8.93084C134.017 8.6482 133.681 8.43151 133.285 8.28079C132.896 8.12374 132.465 8.04525 131.993 8.04525H128.674C128.197 8.04525 127.76 8.12374 127.364 8.28079C126.974 8.43151 126.638 8.6482 126.355 8.93084C126.072 9.20721 125.852 9.54321 125.695 9.93893C125.544 10.3283 125.469 10.7648 125.469 11.2485V13.8299C125.469 14.3136 125.544 14.7532 125.695 15.1489C125.852 15.5384 126.072 15.8744 126.355 16.157C126.638 16.4334 126.974 16.6501 127.364 16.8071C127.76 16.9578 128.197 17.0332 128.674 17.0332H131.974C132.452 17.0332 132.886 16.9578 133.275 16.8071C133.672 16.6501 134.011 16.4334 134.294 16.157C134.577 15.8744 134.794 15.5384 134.945 15.1489C135.102 14.7532 135.18 14.3136 135.18 13.8299V11.2485ZM151.314 8.23367H145.911V19.2943H143.46V8.23367H138.047V5.78412H151.314V8.23367ZM163.468 13.7734H155.727V11.305H163.468V13.7734ZM164.571 19.2943H155.727C155.388 19.2943 155.017 19.2346 154.615 19.1153C154.212 18.9959 153.838 18.8012 153.492 18.5312C153.153 18.2548 152.867 17.9 152.635 17.4666C152.408 17.0269 152.295 16.4899 152.295 15.8555V7.01832C152.295 6.84875 152.327 6.68856 152.389 6.53783C152.452 6.38711 152.537 6.25518 152.644 6.14215C152.757 6.02907 152.889 5.94113 153.04 5.87835C153.191 5.81553 153.354 5.78412 153.53 5.78412H164.571V8.23367H154.747V15.8555C154.747 16.1758 154.831 16.4208 155.001 16.5904C155.171 16.76 155.419 16.8447 155.746 16.8447H164.571V19.2943ZM178.187 19.2943H169.343C169.117 19.2943 168.872 19.2692 168.608 19.2189C168.35 19.1624 168.092 19.0776 167.834 18.9645C167.583 18.8515 167.341 18.707 167.108 18.5312C166.876 18.349 166.669 18.1323 166.486 17.8811C166.31 17.6236 166.169 17.3284 166.062 16.9955C165.955 16.6563 165.902 16.2764 165.902 15.8555V9.22292C165.902 8.99681 165.927 8.75499 165.977 8.49747C166.034 8.23367 166.118 7.97615 166.232 7.72492C166.345 7.4674 166.493 7.22244 166.675 6.99005C166.857 6.75766 167.074 6.55354 167.325 6.37768C167.583 6.1955 167.878 6.05106 168.212 5.94427C168.545 5.83752 168.922 5.78412 169.343 5.78412H178.187V8.23367H169.343C169.023 8.23367 168.777 8.31848 168.608 8.48805C168.438 8.65762 168.353 8.90886 168.353 9.24176V15.8555C168.353 16.1696 168.438 16.4145 168.608 16.5904C168.784 16.76 169.029 16.8447 169.343 16.8447H178.187V19.2943ZM182.205 11.305H190.813V5.78412H193.265V19.2943H190.813V13.7734H182.205V19.2943H179.753V5.78412H182.205V11.305Z" fill="white"/>
<path d="M92.3617 19.2943H89.9102V5.78412H92.3617V19.2943ZM107.967 18.2485C107.967 18.4244 107.933 18.5877 107.864 18.7384C107.801 18.8892 107.713 19.0211 107.6 19.1342C107.493 19.2409 107.364 19.3257 107.213 19.3885C107.062 19.4513 106.902 19.4827 106.732 19.4827C106.581 19.4827 106.427 19.4544 106.27 19.398C106.119 19.3414 105.984 19.2503 105.864 19.1247L96.9072 9.77874V19.2943H94.4557V6.8299C94.4557 6.57866 94.5248 6.35256 94.6632 6.15153C94.8078 5.94427 94.9901 5.7904 95.2101 5.68989C95.4427 5.5957 95.6817 5.57372 95.9268 5.62397C96.1716 5.6679 96.3822 5.78098 96.5582 5.96311L105.516 15.2997V5.78412H107.967V18.2485ZM121.234 13.7734H113.484V11.305H121.234V13.7734ZM122.328 8.23367H112.503V19.2943H110.052V7.01832C110.052 6.84875 110.083 6.68856 110.146 6.53783C110.209 6.38711 110.294 6.25518 110.401 6.14215C110.514 6.02907 110.646 5.94113 110.797 5.87835C110.947 5.81553 111.111 5.78412 111.287 5.78412H122.328V8.23367ZM137.632 13.8299C137.632 14.6527 137.49 15.4096 137.208 16.1005C136.925 16.7914 136.532 17.3881 136.029 17.8905C135.526 18.393 134.929 18.7855 134.237 19.0682C133.552 19.3446 132.804 19.4827 131.993 19.4827H128.674C127.864 19.4827 127.112 19.3446 126.421 19.0682C125.73 18.7855 125.132 18.393 124.629 17.8905C124.126 17.3881 123.73 16.7914 123.442 16.1005C123.159 15.4096 123.017 14.6527 123.017 13.8299V11.2485C123.017 10.432 123.159 9.67827 123.442 8.98738C123.73 8.29021 124.126 7.6935 124.629 7.19731C125.132 6.69484 125.73 6.3023 126.421 6.01965C127.112 5.737 127.864 5.5957 128.674 5.5957H131.993C132.804 5.5957 133.552 5.737 134.237 6.01965C134.929 6.3023 135.526 6.69484 136.029 7.19731C136.532 7.6935 136.925 8.29021 137.208 8.98738C137.49 9.67827 137.632 10.432 137.632 11.2485V13.8299ZM135.18 11.2485C135.18 10.7648 135.102 10.3283 134.945 9.93893C134.794 9.54321 134.577 9.20721 134.294 8.93084C134.017 8.6482 133.681 8.43151 133.285 8.28079C132.896 8.12374 132.465 8.04525 131.993 8.04525H128.674C128.197 8.04525 127.76 8.12374 127.364 8.28079C126.974 8.43151 126.638 8.6482 126.355 8.93084C126.072 9.20721 125.852 9.54321 125.695 9.93893C125.544 10.3283 125.469 10.7648 125.469 11.2485V13.8299C125.469 14.3136 125.544 14.7532 125.695 15.1489C125.852 15.5384 126.072 15.8744 126.355 16.157C126.638 16.4334 126.974 16.6501 127.364 16.8071C127.76 16.9578 128.197 17.0332 128.674 17.0332H131.974C132.452 17.0332 132.886 16.9578 133.275 16.8071C133.672 16.6501 134.011 16.4334 134.294 16.157C134.577 15.8744 134.794 15.5384 134.945 15.1489C135.102 14.7532 135.18 14.3136 135.18 13.8299V11.2485ZM151.314 8.23367H145.911V19.2943H143.46V8.23367H138.047V5.78412H151.314V8.23367ZM163.468 13.7734H155.727V11.305H163.468V13.7734ZM164.571 19.2943H155.727C155.388 19.2943 155.017 19.2346 154.615 19.1153C154.212 18.9959 153.838 18.8012 153.492 18.5312C153.153 18.2548 152.867 17.9 152.635 17.4666C152.408 17.0269 152.295 16.4899 152.295 15.8555V7.01832C152.295 6.84875 152.327 6.68856 152.389 6.53783C152.452 6.38711 152.537 6.25518 152.644 6.14215C152.757 6.02907 152.889 5.94113 153.04 5.87835C153.191 5.81553 153.354 5.78412 153.53 5.78412H164.571V8.23367H154.747V15.8555C154.747 16.1758 154.831 16.4208 155.001 16.5904C155.171 16.76 155.419 16.8447 155.746 16.8447H164.571V19.2943ZM178.187 19.2943H169.343C169.117 19.2943 168.872 19.2692 168.608 19.2189C168.35 19.1624 168.092 19.0776 167.834 18.9645C167.583 18.8515 167.341 18.707 167.108 18.5312C166.876 18.349 166.669 18.1323 166.486 17.8811C166.31 17.6236 166.169 17.3284 166.062 16.9955C165.955 16.6563 165.902 16.2764 165.902 15.8555V9.22292C165.902 8.99681 165.927 8.75499 165.977 8.49747C166.034 8.23367 166.118 7.97615 166.232 7.72492C166.345 7.4674 166.493 7.22244 166.675 6.99005C166.857 6.75766 167.074 6.55354 167.325 6.37768C167.583 6.1955 167.878 6.05106 168.212 5.94427C168.545 5.83752 168.922 5.78412 169.343 5.78412H178.187V8.23367H169.343C169.023 8.23367 168.777 8.31848 168.608 8.48805C168.438 8.65762 168.353 8.90886 168.353 9.24176V15.8555C168.353 16.1696 168.438 16.4145 168.608 16.5904C168.784 16.76 169.029 16.8447 169.343 16.8447H178.187V19.2943ZM182.205 11.305H190.813V5.78412H193.265V19.2943H190.813V13.7734H182.205V19.2943H179.753V5.78412H182.205V11.305Z" fill="black"/>
<path d="M6.28711 28.7188H55.6853" stroke="black" stroke-width="2"/>
<path d="M138.314 28.7188H187.713" stroke="black" stroke-width="2"/>
<path d="M87.1182 4.51433C86.2366 5.68046 85.6376 6.91457 84.6047 7.83269C83.5718 8.75077 82.3598 9.08681 81.018 9.07479C78.6298 9.07479 76.2416 9.06281 73.853 9.04481C73.5391 9.0379 73.2315 9.13644 72.9795 9.32481C72.4667 9.72049 71.988 10.1588 71.5483 10.635C71.2142 10.983 70.8374 11.2874 70.4279 11.541C69.6716 11.9851 68.9051 12.0491 68.1309 11.557C67.6414 11.2455 67.1878 10.8806 66.7778 10.469C66.401 10.0929 66.0265 9.71488 65.6551 9.33482C64.7395 8.40072 63.6648 7.99068 62.3612 8.30672C62.2803 8.32404 62.1973 8.33144 62.1146 8.3287C62.0589 8.32381 62.0042 8.31309 61.9512 8.29671C62.5085 7.85266 62.8785 7.2866 63.3186 6.77058C64.2024 5.75046 65.2591 5.09641 66.6444 5.01241C67.1411 4.96646 67.6414 5.04261 68.1021 5.23425C68.5629 5.4259 68.9702 5.72731 69.2895 6.11249C69.7709 6.66257 70.2406 7.22463 70.7364 7.75865C70.956 7.98611 71.2012 8.18745 71.4666 8.35872C72.1236 8.79878 72.7245 8.74875 73.3199 8.2207C74.4264 7.24061 75.5092 6.23853 76.6853 5.3384C77.3796 4.78554 78.2395 4.48521 79.1256 4.48633C81.7446 4.48633 84.3618 4.50432 87.1182 4.51433Z" fill="#133F99"/>
<path d="M80.0021 10.0999C79.2737 10.924 78.6311 11.6681 77.962 12.4082C77.4783 12.9542 77.0265 13.5303 76.4158 13.9523C75.6623 14.4767 74.7668 14.7559 73.8502 14.7524C72.5906 14.7524 71.3305 14.7684 70.0686 14.7324C69.8463 14.7201 69.624 14.7538 69.4152 14.8312C69.2064 14.9086 69.0155 15.0281 68.8547 15.1824C68.3908 15.6165 67.9431 16.0625 67.4855 16.4885C66.9956 16.9904 66.3637 17.3284 65.6762 17.4566C64.7309 17.6007 64.0519 17.0886 63.407 16.5346C62.7622 15.9805 62.1671 15.3824 61.5582 14.7924C60.7243 13.9923 59.7668 13.6243 58.6069 13.8903C58.4493 13.9133 58.2903 13.9266 58.1309 13.9303C59.3249 12.5162 60.3381 11.004 62.2987 10.676C63.5346 10.4759 64.5535 10.802 65.3937 11.7241C65.929 12.3121 66.4383 12.9242 67.0055 13.4883C67.4536 13.9303 67.9472 14.3343 68.6576 14.2603C68.9711 14.2371 69.2706 14.1185 69.5153 13.9203C70.6879 12.9882 71.665 11.8401 72.8151 10.888C73.3765 10.3857 74.0981 10.1019 74.8494 10.0879C76.5231 10.0879 78.1968 10.0879 80.0021 10.0999Z" fill="#F31F24"/>
<path d="M77.1076 15.7171C76.3792 16.5412 75.7361 17.2852 75.0674 18.0253C74.5838 18.5714 74.132 19.1474 73.5208 19.5695C72.7677 20.0938 71.8723 20.3731 70.9557 20.3695C69.6956 20.3695 68.436 20.3856 67.1741 20.3495C66.9518 20.3373 66.7295 20.3709 66.5207 20.4483C66.3118 20.5257 66.121 20.6453 65.9598 20.7996C65.4963 21.2336 65.0486 21.6797 64.5905 22.1057C64.1011 22.6076 63.4692 22.9456 62.7817 23.0738C61.8359 23.2178 61.1574 22.7058 60.5125 22.1517C59.8676 21.5977 59.2726 20.9996 58.6637 20.4096C57.8297 19.6095 56.8723 19.2414 55.7119 19.5075C55.5543 19.5304 55.3957 19.5438 55.2363 19.5474C56.4304 18.1333 57.4435 16.6212 59.4042 16.2931C60.64 16.0931 61.659 16.4192 62.4988 17.3412C63.034 17.9293 63.5437 18.5414 64.1109 19.1054C64.5587 19.5474 65.0522 19.9515 65.7631 19.8775C66.0765 19.8542 66.3756 19.7356 66.6208 19.5375C67.7929 18.6054 68.7701 17.4573 69.9206 16.5051C70.4819 16.0029 71.2032 15.7191 71.9549 15.7051C73.6286 15.7051 75.3023 15.7051 77.1076 15.7171Z" fill="#F7B72C"/>
</svg>
